<svg width="66" height="21" viewBox="0 0 66 21" fill="none" xmlns="http://www.w3.org/2000/svg">
<path d="M54.5469 12.6215C54.351 12.5163 54.1236 12.4881 53.9084 12.5424C53.6932 12.5967 53.5054 12.7296 53.3812 12.9155C53.1279 13.3131 52.8258 13.6765 52.4822 13.9971C52.0735 14.3459 51.6065 14.618 51.1033 14.8006C50.5678 15.0037 50.0005 15.1076 49.4286 15.1073C48.8731 15.1179 48.3216 15.0106 47.8095 14.7926C47.2974 14.5745 46.836 14.2503 46.4551 13.8409C45.673 13.0001 45.2292 11.894 45.2105 10.7392H54.2967C54.4814 10.7391 54.6638 10.6977 54.8308 10.6179C54.9979 10.5381 55.1454 10.4219 55.2629 10.2776C55.3804 10.1333 55.4649 9.96452 55.5104 9.78329C55.5559 9.60207 55.5613 9.41292 55.5261 9.22935C55.3495 8.22521 54.9509 7.27447 54.3602 6.44823C53.7959 5.68558 53.0571 5.07295 52.2074 4.66292C51.3577 4.25289 50.4224 4.05772 49.4818 4.09415C48.5653 4.06093 47.6544 4.25277 46.827 4.65333C45.9997 5.05388 45.2804 5.65123 44.7306 6.39434C43.7854 7.61325 43.2926 9.12923 43.3381 10.6781C43.3836 12.2271 43.9645 13.7107 44.9795 14.8706C45.5498 15.5208 46.2569 16.0331 47.0489 16.3698C47.8408 16.7065 48.6972 16.8589 49.5551 16.8159C50.3608 16.8278 51.1619 16.6912 51.9193 16.4127C52.6171 16.1439 53.2585 15.7442 53.8099 15.2346C54.2279 14.842 54.59 14.3926 54.8858 13.899C54.9505 13.7939 54.9931 13.6763 55.0109 13.5536C55.0286 13.431 55.0211 13.306 54.9888 13.1864C54.9569 13.0665 54.901 12.9544 54.8247 12.8571C54.7483 12.7599 54.6531 12.6795 54.5449 12.6208L54.5469 12.6215ZM52.8722 7.43455C53.242 7.933 53.5096 8.50135 53.6591 9.10613H45.4221C45.6397 8.29062 46.067 7.54813 46.6605 6.95435C47.4362 6.24419 48.4499 5.85951 49.4957 5.87844C50.1584 5.87778 50.813 6.02501 51.4131 6.30963C51.9793 6.5655 52.4793 6.9508 52.8736 7.43524L52.8722 7.43455Z" fill="white"/>
<path d="M23.9831 12.6261C23.7872 12.5209 23.5598 12.4927 23.3446 12.547C23.1294 12.6013 22.9415 12.7342 22.8173 12.9201C22.5639 13.3176 22.2619 13.681 21.9183 14.0016C21.5096 14.3504 21.0427 14.6225 20.5395 14.8052C20.004 15.0083 19.4367 15.1122 18.8648 15.1118C18.3093 15.1224 17.7578 15.0152 17.2457 14.7971C16.7336 14.579 16.2723 14.2549 15.8913 13.8455C15.1093 13.0047 14.6654 11.8986 14.6466 10.7438H23.7328C23.9175 10.7437 24.0999 10.7023 24.267 10.6225C24.434 10.5427 24.5816 10.4265 24.6991 10.2822C24.8166 10.1379 24.9011 9.96911 24.9466 9.78789C24.9921 9.60666 24.9975 9.41749 24.9623 9.23392C24.7857 8.22978 24.3871 7.27906 23.7964 6.45282C23.2322 5.69004 22.4935 5.07726 21.6438 4.66711C20.794 4.25695 19.8587 4.06169 18.918 4.09804C18.0014 4.06489 17.0905 4.25686 16.2631 4.65754C15.4357 5.05822 14.7165 5.65569 14.1668 6.39893C13.2217 7.61792 12.729 9.13395 12.7746 10.6829C12.8202 12.2318 13.4012 13.7154 14.4164 14.8752C14.9867 15.5254 15.6938 16.0377 16.4857 16.3744C17.2776 16.7111 18.1341 16.8635 18.992 16.8205C19.7977 16.8324 20.5988 16.6958 21.3562 16.4173C22.0539 16.1485 22.6953 15.7488 23.2467 15.2392C23.6648 14.8467 24.0269 14.3972 24.3226 13.9036C24.3874 13.7985 24.43 13.6809 24.4478 13.5582C24.4655 13.4356 24.458 13.3106 24.4257 13.191C24.3938 13.0711 24.3379 12.959 24.2615 12.8617C24.1852 12.7645 24.09 12.684 23.9818 12.6254L23.9831 12.6261ZM22.3084 7.43912C22.6783 7.93756 22.9458 8.50593 23.0953 9.11072H14.8583C15.0759 8.29522 15.5032 7.55272 16.0967 6.95892C16.8724 6.24876 17.8861 5.8641 18.9318 5.88303C19.5945 5.8824 20.2492 6.02962 20.8493 6.31423C21.4155 6.5701 21.9154 6.95539 22.3098 7.43983L22.3084 7.43912Z" fill="white"/>
<path d="M10.8803 15.9766V10.0343C10.9393 8.85748 10.7801 7.67982 10.4108 6.56232C10.1064 5.83185 9.59326 5.21022 8.93718 4.77733C8.25213 4.32907 7.45081 4.09735 6.63523 4.11164C5.8211 4.10274 5.01854 4.30723 4.30559 4.70523C3.63069 5.09287 3.03619 5.60889 2.55475 6.22492V0.860828C2.55475 0.749322 2.53304 0.638903 2.49089 0.535886C2.44874 0.432868 2.38696 0.339265 2.30907 0.260419C2.23118 0.181572 2.13872 0.119032 2.03695 0.0763611C1.93519 0.0336898 1.82611 0.0117187 1.71596 0.0117188C1.4935 0.0117187 1.28015 0.101182 1.12285 0.260419C0.965551 0.419656 0.877197 0.635632 0.877197 0.860828V15.9843C0.877197 16.2093 0.965491 16.4251 1.12266 16.5842C1.27983 16.7433 1.49299 16.8327 1.71527 16.8327C1.93754 16.8327 2.15072 16.7433 2.30789 16.5842C2.46506 16.4251 2.55335 16.2093 2.55335 15.9843V11.708C2.51891 10.6817 2.58283 9.65446 2.74421 8.64064C2.95178 7.81125 3.41754 7.07151 4.07257 6.53083C4.70603 5.98082 5.51371 5.6797 6.34825 5.68243C6.9886 5.626 7.62608 5.81917 8.13049 6.22247C8.63491 6.62576 8.9682 7.20877 9.06234 7.85243C9.2003 8.71227 9.25406 9.58379 9.22278 10.4543V15.9843C9.22324 16.2071 9.3111 16.4206 9.46704 16.5778C9.62298 16.735 9.83421 16.823 10.0543 16.8226C10.2744 16.8221 10.4852 16.7332 10.6405 16.5753C10.7958 16.4174 10.8828 16.2036 10.8824 15.9808V15.9752L10.8803 15.9766Z" fill="white"/>
<path d="M30.8176 4.09519C29.9535 4.0208 29.0918 4.26356 28.3898 4.7791C27.5406 5.49539 27.0002 6.5182 26.8831 7.63089V15.9609C26.8831 16.1956 26.9751 16.4206 27.139 16.5865C27.3029 16.7525 27.5253 16.8457 27.7571 16.8457C27.9889 16.8457 28.2112 16.7525 28.3751 16.5865C28.5391 16.4206 28.6312 16.1956 28.6312 15.9609V7.75479C28.7034 7.14844 28.9948 6.59062 29.4492 6.18889C29.8926 5.9921 30.3684 5.88077 30.8522 5.86059C31.0803 5.85145 31.2966 5.75568 31.4581 5.59237C31.6195 5.42905 31.7143 5.21016 31.7235 4.97929C31.7222 4.86088 31.6978 4.7439 31.6516 4.63512C31.6053 4.52634 31.5383 4.42791 31.4542 4.34556C31.3702 4.2632 31.2708 4.19854 31.1619 4.15532C31.0529 4.11211 30.9367 4.0912 30.8197 4.0938L30.8176 4.09519Z" fill="white"/>
<path d="M42.5777 15.316L37.9067 8.77031L41.1927 5.85201C41.3572 5.70349 41.4567 5.49488 41.4693 5.27211C41.4818 5.04934 41.4065 4.83065 41.2597 4.66412C41.113 4.49759 40.907 4.39688 40.6869 4.38414C40.4668 4.37141 40.2508 4.44768 40.0863 4.59621L35.2901 8.8291V0.849109C35.2901 0.623914 35.2017 0.407937 35.0444 0.2487C34.8871 0.0894628 34.6738 0 34.4513 0C34.2289 0 34.0155 0.0894628 33.8582 0.2487C33.7009 0.407937 33.6125 0.623914 33.6125 0.849109V15.9747C33.6188 16.1958 33.71 16.4057 33.8667 16.5598C34.0233 16.7139 34.2332 16.8001 34.4517 16.8001C34.6701 16.8001 34.88 16.7139 35.0367 16.5598C35.1934 16.4057 35.2845 16.1958 35.2908 15.9747V11.0922L36.5016 10.0576L41.062 16.4402C41.2123 16.6334 41.4309 16.76 41.6716 16.7935C41.9123 16.8269 42.1565 16.7645 42.3526 16.6194C42.5488 16.4743 42.6818 16.2578 42.7235 16.0155C42.7652 15.7732 42.7125 15.5239 42.5763 15.3202L42.5777 15.316Z" fill="white"/>
<path d="M57.5462 4.60558C57.4952 4.49324 57.4216 4.39285 57.3302 4.3108C57.2387 4.22875 57.1315 4.16681 57.0152 4.1289C56.8989 4.091 56.7762 4.07798 56.6546 4.09062C56.5331 4.10327 56.4155 4.14131 56.3092 4.20237C56.0829 4.32875 55.9154 4.54096 55.8435 4.79233C55.7717 5.0437 55.8014 5.31367 55.9262 5.54287L59.721 12.5737L55.8708 19.6913C55.8105 19.7967 55.7724 19.9135 55.7588 20.0345C55.7452 20.1555 55.7564 20.278 55.7918 20.3944C55.8272 20.5108 55.886 20.6186 55.9644 20.7109C56.0428 20.8032 56.1393 20.8781 56.2477 20.931C56.4736 21.0518 56.7373 21.0779 56.982 21.0037C57.2268 20.9294 57.4329 20.7608 57.556 20.5341L61.8611 12.5751L57.5449 4.60488L57.5462 4.60558Z" fill="#87C05A"/>
<path d="M65.2499 4.15538C65.0048 4.06525 64.7348 4.07427 64.496 4.18052C64.2572 4.28677 64.0681 4.48209 63.9679 4.72588C63.9679 4.72588 61.5145 9.24999 61.3547 9.54889L62.4231 11.5313L65.7298 5.41468C65.7832 5.30055 65.8132 5.17661 65.8178 5.05039C65.8225 4.92418 65.8018 4.79831 65.7569 4.68046C65.712 4.56261 65.6439 4.45524 65.5568 4.36486C65.4696 4.27447 65.3652 4.20365 65.2499 4.15538Z" fill="white"/>
</svg>
